<svg width="38" height="38" viewBox="0 0 38 38" fill="none" xmlns="http://www.w3.org/2000/svg">
<path d="M8.88004 7.70497L24.0288 3.56999L23.2266 1.94843C22.7017 0.894412 21.4215 0.459151 20.3675 0.984025L6.80615 7.70497H8.88004Z" fill="#63AADA"/>
<path d="M28.7314 3.68945C28.5437 3.68945 28.3559 3.71506 28.1681 3.76626L24.6092 4.7392L13.7405 7.70495H26.0771H31.4539L30.7882 5.26407C30.5322 4.31247 29.6702 3.68945 28.7314 3.68945Z" fill="#63AADA"/>
<path d="M33.6773 9.19852H33.1908H32.5294H31.8679H26.8198H8.26996H5.83762H3.78933H3.40954H2.1379C1.46367 9.19852 0.861988 9.51003 0.469399 10.0008C0.290174 10.2269 0.153622 10.4872 0.0768108 10.7731C0.0298709 10.9524 0 11.1401 0 11.3321V11.5882V14.0205V35.1051C0 36.2829 0.955867 37.2387 2.13363 37.2387H33.673C34.8508 37.2387 35.8066 36.2829 35.8066 35.1051V29.1523H23.1456C21.1443 29.1523 19.5185 27.5264 19.5185 25.5251V23.5707V22.9092V22.2478V20.7799C19.5185 19.7984 19.911 18.9066 20.5469 18.2537C21.1102 17.6733 21.8655 17.2807 22.7104 17.1826C22.8512 17.1655 22.9963 17.157 23.1414 17.157H34.0314H34.6929H35.3543H35.8066V11.3321C35.8109 10.1544 34.855 9.19852 33.6773 9.19852Z" fill="#63AADA"/>
<path d="M37.3044 19.1967C37.091 19.0004 36.8393 18.8511 36.5576 18.7529C36.3399 18.6804 36.1096 18.6378 35.8663 18.6378H35.8108H35.7682H35.1067H32.7213H23.1456C21.9678 18.6378 21.012 19.5936 21.012 20.7714V21.8339V22.4953V23.1567V25.5208C21.012 26.6986 21.9678 27.6544 23.1456 27.6544H35.8108H35.8663C36.1096 27.6544 36.34 27.6118 36.5576 27.5392C36.8393 27.4454 37.091 27.2917 37.3044 27.0954C37.7311 26.7071 38 26.1438 38 25.5209V20.7714C38 20.1483 37.7311 19.585 37.3044 19.1967ZM27.6006 23.5707C27.6006 24.1596 27.1227 24.6375 26.5338 24.6375H25.8254C25.2366 24.6375 24.7586 24.1596 24.7586 23.5707V22.8623C24.7586 22.5209 24.9165 22.2179 25.1683 22.0259C25.3518 21.8851 25.578 21.7955 25.8254 21.7955H26.0047H26.5338C27.1227 21.7955 27.6006 22.2734 27.6006 22.8623V23.5707Z" fill="#63AADA"/>
</svg>
