<svg width="34" height="34" viewBox="0 0 34 34" fill="none" xmlns="http://www.w3.org/2000/svg">
<path d="M14.9093 18.2693C17.1443 18.2693 22.3991 15.5796 22.3991 9.1345C22.3991 8.23541 22.3772 7.3668 22.303 6.54609C22.1814 4.93161 21.8506 3.50076 21.0275 2.40406C19.9714 0.911412 18.1233 0 14.9093 0C11.6965 0 9.84847 0.910949 8.79226 2.40286C7.96812 3.49983 7.6372 4.93143 7.51556 6.54692C7.44154 7.36736 7.41968 8.23569 7.41968 9.1346C7.41968 15.5796 12.6743 18.2693 14.9093 18.2693ZM17.3542 3.34651C17.1361 3.89782 17.0268 4.17343 16.8085 4.72474C15.3995 4.32666 14.4192 4.32666 13.0102 4.72474C12.792 4.17343 12.6829 3.89782 12.4644 3.34651C14.2265 2.81308 15.5922 2.81308 17.3542 3.34651ZM8.53388 7.73718C8.62023 7.9259 8.98681 8.65147 9.55424 8.71956C10.2065 8.79775 11.2893 6.40944 14.9094 6.4037C18.5295 6.40953 19.6123 8.79775 20.2646 8.71956C20.832 8.65147 21.1986 7.9259 21.285 7.73718C21.3025 8.19965 21.309 8.66787 21.309 9.1346C21.309 12.285 19.9179 14.2369 18.7509 15.3197C17.2806 16.6839 15.6481 17.1791 14.9095 17.1791C14.1709 17.1791 12.5384 16.6839 11.0681 15.3197C9.901 14.2369 8.51007 12.285 8.51007 9.1346C8.50989 8.66777 8.51637 8.19965 8.53388 7.73718Z" fill="#63AADA"/>
<path d="M21.5582 19.6186C21.7995 19.3772 22.0557 19.156 22.3234 18.9534C21.2837 18.3867 20.2752 17.8479 19.6226 17.4992L19.5919 17.4828C19.4083 17.3847 19.184 17.4043 19.0204 17.5329C18.1788 18.1936 17.257 18.6389 16.2806 18.8561C16.1082 18.8945 15.9665 19.0171 15.9039 19.1823L14.9095 21.8032L13.9151 19.1823C13.8526 19.0171 13.7109 18.8945 13.5384 18.8561C12.5621 18.6388 11.6403 18.1935 10.7987 17.5329C10.6348 17.4043 10.4107 17.3846 10.2271 17.4828C8.63941 18.3312 4.83071 20.3827 3.75801 21.1056C1.94028 22.3303 1.14559 26.7617 1.00469 27.6376C0.99079 27.7245 0.998757 27.8135 1.02812 27.8964C1.09325 28.08 2.76136 32.394 14.9096 32.394C15.4593 32.394 15.9868 32.3849 16.4943 32.368C16.5388 31.8063 16.7749 31.257 17.2036 30.8281L20.1229 27.9089C18.8167 25.1598 19.3466 21.8302 21.5582 19.6186Z" fill="#63AADA"/>
<path d="M31.1645 20.3392C29.9796 19.1543 28.4018 18.5017 26.7216 18.5017C25.0416 18.5017 23.4638 19.1543 22.279 20.3392C20.2861 22.332 19.8655 25.4328 21.2562 27.8799L21.3782 28.0947L17.9241 31.5488C17.3644 32.1086 17.3645 33.0196 17.9243 33.5795C18.1955 33.8507 18.5561 34 18.9395 34C19.3232 34 19.6837 33.8507 19.9549 33.5794L23.409 30.1254L23.6237 30.2473C24.5618 30.7798 25.6338 31.0613 26.7238 31.0613C28.4032 31.0613 29.9801 30.4091 31.1645 29.2248C32.3494 28.0399 33.002 26.462 33.002 24.7819C33.002 23.1019 32.3494 21.5241 31.1645 20.3392ZM29.625 27.6853C28.8508 28.4597 27.8196 28.8862 26.7217 28.8862C25.6238 28.8862 24.5926 28.4597 23.8182 27.6853C22.2173 26.0844 22.2173 23.4795 23.8182 21.8785C24.5926 21.1041 25.6238 20.6777 26.7217 20.6777C27.8196 20.6777 28.8507 21.1042 29.625 21.8786C30.3994 22.6529 30.8259 23.684 30.8259 24.7819C30.8259 25.8798 30.3994 26.911 29.625 27.6853Z" fill="#63AADA"/>
</svg>
