<svg width="35" height="37" viewBox="0 0 35 37" fill="none" xmlns="http://www.w3.org/2000/svg">
<path d="M34.755 9.46838L27.2857 0.374306C27.0906 0.13682 26.805 0 26.5042 0C26.2033 0 25.9177 0.13682 25.7227 0.374306L18.2534 9.46838C17.9938 9.78441 17.935 10.2282 18.1029 10.6051C18.2708 10.982 18.6346 11.2233 19.0349 11.2233H21.0823V15.6173H24.9957C26.6542 15.6173 28.0035 17.0166 28.0035 18.7366V35.1906C28.0035 35.5772 27.9349 35.9473 27.8103 36.2892C29.3291 36.287 30.6177 36.2851 30.6177 36.2851C31.1837 36.2838 31.6419 35.8075 31.6419 35.2206V11.2234H33.9734C34.3737 11.2234 34.7375 10.982 34.9054 10.6051C35.0733 10.2282 35.0146 9.78448 34.755 9.46838Z" fill="#63AADA"/>
<path d="M10.9001 13.997H15.2896V15.6173H17.3404V12.9336C17.3404 12.3463 16.8813 11.8702 16.315 11.8702H9.87476C9.30847 11.8702 8.84937 12.3463 8.84937 12.9336V15.6173H10.9001V13.997Z" fill="#63AADA"/>
<path d="M5.37025 24.6088V23.0841C5.37025 22.4968 5.82935 22.0207 6.39564 22.0207C6.96193 22.0207 7.42103 22.4968 7.42103 23.0841V24.6088H18.6208V23.0841C18.6208 22.4968 19.0799 22.0207 19.6462 22.0207C20.2125 22.0207 20.6716 22.4968 20.6716 23.0841V24.6088H26.0211V18.7366C26.0211 18.1494 25.562 17.6732 24.9957 17.6732H1.02539C0.459102 17.6732 0 18.1494 0 18.7366V24.6088H5.37025Z" fill="#63AADA"/>
<path d="M24.9956 36.254C25.5619 36.254 26.021 35.7779 26.021 35.1906V26.7356H20.6716V27.7722C20.6716 28.3595 20.2125 28.8356 19.6462 28.8356C19.0799 28.8356 18.6208 28.3595 18.6208 27.7722V26.7356H14.0462V27.7722C14.0462 28.3595 13.5871 28.8356 13.0208 28.8356C12.4545 28.8356 11.9954 28.3595 11.9954 27.7722V26.7356H7.42096V27.7722C7.42096 28.3595 6.96186 28.8356 6.39557 28.8356C5.82928 28.8356 5.37018 28.3595 5.37018 27.7722V26.7356H0V35.1907C0 35.778 0.459102 36.2541 1.02539 36.2541H24.9956V36.254Z" fill="#63AADA"/>
</svg>
