<svg width="37" height="37" viewBox="0 0 37 37" fill="none" xmlns="http://www.w3.org/2000/svg">
<g clip-path="url(#clip0)">
<path d="M36.9942 18.2655C36.9339 17.0601 36.4048 15.926 35.5198 15.1054C34.6349 14.2847 33.4642 13.8425 32.2577 13.8731C31.0512 13.9037 29.9044 14.4047 29.0622 15.2692C28.22 16.1337 27.7491 17.2931 27.75 18.5V26.2083C27.75 25.7995 27.5876 25.4073 27.2985 25.1182C27.0093 24.8291 26.6172 24.6667 26.2083 24.6667H10.7917C10.3828 24.6667 9.99067 24.8291 9.70155 25.1182C9.41243 25.4073 9.25 25.7995 9.25 26.2083V18.5C9.24995 17.6521 9.01681 16.8205 8.57606 16.0962C8.13532 15.3718 7.50393 14.7826 6.75092 14.3929C5.9979 14.0031 5.15224 13.8279 4.30635 13.8863C3.46047 13.9447 2.64692 14.2345 1.95463 14.7241C1.26234 15.2137 0.717954 15.8841 0.380967 16.6622C0.0439806 17.4402 -0.0726343 18.2959 0.0438684 19.1358C0.160371 19.9756 0.505508 20.7673 1.04156 21.4243C1.5776 22.0812 2.28393 22.5782 3.08334 22.8608V30.8333C3.08334 31.2422 3.24576 31.6343 3.53488 31.9235C3.824 32.2126 4.21613 32.375 4.625 32.375H6.16667V35.4583H9.25V32.375H27.75V35.4583H30.8333V32.375H32.375C32.7839 32.375 33.176 32.2126 33.4651 31.9235C33.7542 31.6343 33.9167 31.2422 33.9167 30.8333V22.8608C34.8562 22.5285 35.6632 21.9017 36.2178 21.0737C36.7723 20.2457 37.0446 19.2607 36.9942 18.2655Z" fill="#63AADA"/>
<path d="M10.7917 18.5V23.125H26.2084V18.5C26.2102 17.1333 26.6651 15.8057 27.502 14.7251C28.3389 13.6446 29.5105 12.8721 30.8334 12.5286V9.25001C30.8311 7.20633 30.0183 5.24702 28.5732 3.80193C27.1281 2.35683 25.1688 1.54397 23.1251 1.54167H13.8751C11.8314 1.54397 9.8721 2.35683 8.427 3.80193C6.98191 5.24702 6.16904 7.20633 6.16675 9.25001V12.5286C7.48963 12.8721 8.66124 13.6446 9.49815 14.7251C10.3351 15.8057 10.79 17.1333 10.7917 18.5ZM21.5834 7.70834C21.8883 7.70834 22.1864 7.79876 22.4399 7.96816C22.6934 8.13756 22.891 8.37833 23.0077 8.66004C23.1244 8.94174 23.1549 9.25172 23.0955 9.55077C23.036 9.84983 22.8891 10.1245 22.6735 10.3401C22.4579 10.5557 22.1832 10.7026 21.8842 10.7621C21.5851 10.8215 21.2751 10.791 20.9934 10.6743C20.7117 10.5576 20.471 10.36 20.3016 10.1065C20.1322 9.85299 20.0417 9.55492 20.0417 9.25001C20.0417 8.84113 20.2042 8.449 20.4933 8.15988C20.7824 7.87077 21.1745 7.70834 21.5834 7.70834ZM21.5834 12.3333C21.8883 12.3333 22.1864 12.4238 22.4399 12.5932C22.6934 12.7626 22.891 13.0033 23.0077 13.285C23.1244 13.5667 23.1549 13.8767 23.0955 14.1758C23.036 14.4748 22.8891 14.7495 22.6735 14.9651C22.4579 15.1807 22.1832 15.3276 21.8842 15.3871C21.5851 15.4465 21.2751 15.416 20.9934 15.2993C20.7117 15.1826 20.471 14.985 20.3016 14.7315C20.1322 14.478 20.0417 14.1799 20.0417 13.875C20.0417 13.4661 20.2042 13.074 20.4933 12.7849C20.7824 12.4958 21.1745 12.3333 21.5834 12.3333ZM15.4167 7.70834C15.7217 7.70834 16.0197 7.79876 16.2733 7.96816C16.5268 8.13756 16.7244 8.37833 16.8411 8.66004C16.9577 8.94174 16.9883 9.25172 16.9288 9.55077C16.8693 9.84983 16.7225 10.1245 16.5069 10.3401C16.2913 10.5557 16.0166 10.7026 15.7175 10.7621C15.4185 10.8215 15.1085 10.791 14.8268 10.6743C14.5451 10.5576 14.3043 10.36 14.1349 10.1065C13.9655 9.85299 13.8751 9.55492 13.8751 9.25001C13.8751 8.84113 14.0375 8.449 14.3266 8.15988C14.6157 7.87077 15.0079 7.70834 15.4167 7.70834ZM15.4167 12.3333C15.7217 12.3333 16.0197 12.4238 16.2733 12.5932C16.5268 12.7626 16.7244 13.0033 16.8411 13.285C16.9577 13.5667 16.9883 13.8767 16.9288 14.1758C16.8693 14.4748 16.7225 14.7495 16.5069 14.9651C16.2913 15.1807 16.0166 15.3276 15.7175 15.3871C15.4185 15.4465 15.1085 15.416 14.8268 15.2993C14.5451 15.1826 14.3043 14.985 14.1349 14.7315C13.9655 14.478 13.8751 14.1799 13.8751 13.875C13.8751 13.4661 14.0375 13.074 14.3266 12.7849C14.6157 12.4958 15.0079 12.3333 15.4167 12.3333Z" fill="#63AADA"/>
</g>
<defs>
<clipPath id="clip0">
<rect width="37" height="37" fill="white"/>
</clipPath>
</defs>
</svg>
