<svg width="30" height="34" viewBox="0 0 30 34" fill="none" xmlns="http://www.w3.org/2000/svg">
<path fill-rule="evenodd" clip-rule="evenodd" d="M4.28571 14.875V10.625C4.28571 4.75698 9.08267 0 15 0C20.9173 0 25.7143 4.75698 25.7143 10.625V14.875C28.0813 14.875 30 16.7778 30 19.125V29.75C30 32.0973 28.0813 34 25.7143 34H4.28571C1.91878 34 0 32.0973 0 29.75V19.125C0 16.7778 1.91878 14.875 4.28571 14.875ZM21.4286 10.625V14.875H8.57143V10.625C8.57143 7.10419 11.4496 4.25 15 4.25C18.5505 4.25 21.4286 7.10419 21.4286 10.625Z" fill="#63AADA"/>
</svg>
